<svg width="99" height="12" viewBox="0 0 99 12" fill="none" xmlns="http://www.w3.org/2000/svg">
<path d="M6.67498 8.87069H2.22499L1.40526 11.1396H2.7784e-06L3.68881 0.995389H5.22581L8.89997 11.1396H7.49471L6.67498 8.87069ZM6.29439 7.78747L4.44999 2.63486L2.60559 7.78747H6.29439ZM10.0099 7.09948C10.0099 6.27974 10.1758 5.56248 10.5076 4.94768C10.8394 4.32312 11.2932 3.84006 11.869 3.4985C12.4545 3.15695 13.1083 2.98617 13.8305 2.98617C14.4551 2.98617 15.0357 3.13255 15.5724 3.42531C16.1092 3.70832 16.519 4.08403 16.802 4.55245V0.307398H18.1487V11.1396H16.802V9.63187C16.5385 10.11 16.1482 10.5053 15.631 10.8176C15.1138 11.1201 14.5087 11.2713 13.8159 11.2713C13.1035 11.2713 12.4545 11.0957 11.869 10.7444C11.2932 10.3931 10.8394 9.90024 10.5076 9.26592C10.1758 8.6316 10.0099 7.90945 10.0099 7.09948ZM16.802 7.11412C16.802 6.50907 16.68 5.9821 16.4361 5.5332C16.1921 5.0843 15.8603 4.74274 15.4407 4.50853C15.0308 4.26457 14.577 4.14258 14.0793 4.14258C13.5816 4.14258 13.1279 4.25969 12.718 4.4939C12.3081 4.72811 11.9812 5.06966 11.7372 5.51856C11.4933 5.96746 11.3713 6.49444 11.3713 7.09948C11.3713 7.71428 11.4933 8.25101 11.7372 8.70967C11.9812 9.15857 12.3081 9.50501 12.718 9.74897C13.1279 9.98318 13.5816 10.1003 14.0793 10.1003C14.577 10.1003 15.0308 9.98318 15.4407 9.74897C15.8603 9.50501 16.1921 9.15857 16.4361 8.70967C16.68 8.25101 16.802 7.71916 16.802 7.11412ZM30.0463 2.97153C30.6709 2.97153 31.2271 3.10328 31.7151 3.36676C32.203 3.62049 32.5885 4.00596 32.8715 4.52317C33.1545 5.04038 33.296 5.66982 33.296 6.41149V11.1396H31.9785V6.60178C31.9785 5.80157 31.7785 5.19164 31.3784 4.77202C30.988 4.34263 30.4562 4.12794 29.7828 4.12794C29.09 4.12794 28.5386 4.35239 28.1287 4.8013C27.7189 5.24044 27.5139 5.87964 27.5139 6.71889V11.1396H26.1965V6.60178C26.1965 5.80157 25.9964 5.19164 25.5963 4.77202C25.206 4.34263 24.6741 4.12794 24.0008 4.12794C23.3079 4.12794 22.7565 4.35239 22.3467 4.8013C21.9368 5.24044 21.7319 5.87964 21.7319 6.71889V11.1396H20.3998V3.11791H21.7319V4.27432C21.9954 3.8547 22.3467 3.53266 22.7858 3.30821C23.2347 3.08376 23.7275 2.97153 24.2643 2.97153C24.9376 2.97153 25.5329 3.12279 26.0501 3.42531C26.5673 3.72783 26.9528 4.17186 27.2065 4.75738C27.431 4.19137 27.8018 3.75223 28.319 3.43995C28.8362 3.12767 29.412 2.97153 30.0463 2.97153ZM36.169 1.81512C35.9153 1.81512 35.7006 1.72729 35.525 1.55164C35.3493 1.37598 35.2615 1.16129 35.2615 0.907559C35.2615 0.653833 35.3493 0.439141 35.525 0.263483C35.7006 0.0878259 35.9153 -2.74743e-06 36.169 -2.74743e-06C36.413 -2.74743e-06 36.6179 0.0878259 36.7838 0.263483C36.9595 0.439141 37.0473 0.653833 37.0473 0.907559C37.0473 1.16129 36.9595 1.37598 36.7838 1.55164C36.6179 1.72729 36.413 1.81512 36.169 1.81512ZM36.8131 3.11791V11.1396H35.4811V3.11791H36.8131ZM42.9918 2.97153C43.9676 2.97153 44.7581 3.26917 45.3631 3.86446C45.9682 4.44998 46.2707 5.29899 46.2707 6.41149V11.1396H44.9533V6.60178C44.9533 5.80157 44.7532 5.19164 44.3531 4.77202C43.953 4.34263 43.4065 4.12794 42.7136 4.12794C42.011 4.12794 41.4499 4.34751 41.0303 4.78666C40.6204 5.2258 40.4155 5.865 40.4155 6.70425V11.1396H39.0834V3.11791H40.4155V4.25969C40.679 3.84982 41.0351 3.53266 41.484 3.30821C41.9427 3.08376 42.4453 2.97153 42.9918 2.97153ZM49.1346 1.81512C48.8809 1.81512 48.6662 1.72729 48.4906 1.55164C48.3149 1.37598 48.2271 1.16129 48.2271 0.907559C48.2271 0.653833 48.3149 0.439141 48.4906 0.263483C48.6662 0.0878259 48.8809 -2.74743e-06 49.1346 -2.74743e-06C49.3786 -2.74743e-06 49.5835 0.0878259 49.7494 0.263483C49.9251 0.439141 50.0129 0.653833 50.0129 0.907559C50.0129 1.16129 49.9251 1.37598 49.7494 1.55164C49.5835 1.72729 49.3786 1.81512 49.1346 1.81512ZM49.7787 3.11791V11.1396H48.4466V3.11791H49.7787ZM54.8888 11.2713C54.274 11.2713 53.7226 11.1689 53.2347 10.9639C52.7467 10.7492 52.3613 10.4565 52.0783 10.0857C51.7953 9.70506 51.6391 9.2708 51.6098 8.78286H52.9858C53.0249 9.18297 53.2103 9.50989 53.5421 9.76361C53.8836 10.0173 54.3276 10.1442 54.8741 10.1442C55.3816 10.1442 55.7817 10.032 56.0745 9.80753C56.3672 9.58308 56.5136 9.30007 56.5136 8.95852C56.5136 8.6072 56.3575 8.3486 56.0452 8.1827C55.7329 8.00704 55.2498 7.83626 54.596 7.67036C54.0007 7.51422 53.5128 7.35808 53.1322 7.20194C52.7614 7.03605 52.4393 6.79696 52.1661 6.48468C51.9026 6.16264 51.7709 5.74301 51.7709 5.2258C51.7709 4.81593 51.8928 4.44022 52.1368 4.09867C52.3808 3.75711 52.7272 3.48875 53.1761 3.29357C53.625 3.08864 54.1374 2.98617 54.7131 2.98617C55.6012 2.98617 56.3184 3.21062 56.8649 3.65952C57.4114 4.10843 57.7042 4.72323 57.7432 5.50392H56.4111C56.3819 5.0843 56.2111 4.74762 55.8988 4.4939C55.5963 4.24017 55.1864 4.1133 54.6692 4.1133C54.191 4.1133 53.8104 4.21577 53.5274 4.4207C53.2444 4.62564 53.1029 4.894 53.1029 5.2258C53.1029 5.48929 53.1859 5.70886 53.3518 5.88452C53.5274 6.05041 53.7421 6.18704 53.9959 6.29438C54.2593 6.39197 54.6204 6.50419 55.0791 6.63106C55.6548 6.7872 56.1233 6.94334 56.4843 7.09948C56.8454 7.24586 57.1528 7.47031 57.4065 7.77283C57.67 8.07535 57.8066 8.47058 57.8164 8.95852C57.8164 9.39766 57.6944 9.79289 57.4504 10.1442C57.2065 10.4955 56.86 10.7736 56.4111 10.9786C55.972 11.1738 55.4645 11.2713 54.8888 11.2713ZM61.3216 4.21577V8.94388C61.3216 9.33423 61.4046 9.61235 61.5705 9.77825C61.7364 9.93439 62.0243 10.0125 62.4341 10.0125H63.4149V11.1396H62.2146C61.4729 11.1396 60.9167 10.9688 60.5458 10.6273C60.175 10.2857 59.9896 9.72458 59.9896 8.94388V4.21577H58.9503V3.11791H59.9896V1.09785H61.3216V3.11791H63.4149V4.21577H61.3216ZM66.3609 4.4207C66.5951 3.96204 66.9269 3.60585 67.3563 3.35212C67.7955 3.0984 68.3273 2.97153 68.9519 2.97153V4.34751H68.6006C67.1075 4.34751 66.3609 5.15749 66.3609 6.77744V11.1396H65.0289V3.11791H66.3609V4.4207ZM69.9919 7.09948C69.9919 6.27974 70.1578 5.56248 70.4896 4.94768C70.8214 4.32312 71.2751 3.84006 71.8509 3.4985C72.4364 3.15695 73.0854 2.98617 73.7978 2.98617C74.5004 2.98617 75.1103 3.13743 75.6275 3.43995C76.1448 3.74247 76.5302 4.12306 76.7839 4.58172V3.11791H78.1307V11.1396H76.7839V9.64651C76.5205 10.1149 76.1252 10.5053 75.5983 10.8176C75.081 11.1201 74.476 11.2713 73.7831 11.2713C73.0707 11.2713 72.4267 11.0957 71.8509 10.7444C71.2751 10.3931 70.8214 9.90024 70.4896 9.26592C70.1578 8.6316 69.9919 7.90945 69.9919 7.09948ZM76.7839 7.11412C76.7839 6.50907 76.662 5.9821 76.418 5.5332C76.174 5.0843 75.8422 4.74274 75.4226 4.50853C75.0127 4.26457 74.559 4.14258 74.0613 4.14258C73.5636 4.14258 73.1098 4.25969 72.6999 4.4939C72.2901 4.72811 71.9631 5.06966 71.7192 5.51856C71.4752 5.96746 71.3532 6.49444 71.3532 7.09948C71.3532 7.71428 71.4752 8.25101 71.7192 8.70967C71.9631 9.15857 72.2901 9.50501 72.6999 9.74897C73.1098 9.98318 73.5636 10.1003 74.0613 10.1003C74.559 10.1003 75.0127 9.98318 75.4226 9.74897C75.8422 9.50501 76.174 9.15857 76.418 8.70967C76.662 8.25101 76.7839 7.71916 76.7839 7.11412ZM82.0065 4.21577V8.94388C82.0065 9.33423 82.0895 9.61235 82.2554 9.77825C82.4213 9.93439 82.7092 10.0125 83.119 10.0125H84.0998V11.1396H82.8995C82.1578 11.1396 81.6016 10.9688 81.2307 10.6273C80.8599 10.2857 80.6745 9.72458 80.6745 8.94388V4.21577H79.6352V3.11791H80.6745V1.09785H82.0065V3.11791H84.0998V4.21577H82.0065ZM89.2123 11.2713C88.4608 11.2713 87.7777 11.1006 87.1629 10.759C86.5579 10.4174 86.0797 9.93439 85.7284 9.30983C85.3868 8.67551 85.2161 7.94361 85.2161 7.11412C85.2161 6.29438 85.3917 5.57224 85.743 4.94768C86.1041 4.31336 86.592 3.8303 87.2068 3.4985C87.8216 3.15695 88.5096 2.98617 89.2708 2.98617C90.032 2.98617 90.72 3.15695 91.3348 3.4985C91.9496 3.8303 92.4327 4.30848 92.784 4.93304C93.145 5.5576 93.3256 6.28462 93.3256 7.11412C93.3256 7.94361 93.1402 8.67551 92.7693 9.30983C92.4083 9.93439 91.9154 10.4174 91.2909 10.759C90.6663 11.1006 89.9734 11.2713 89.2123 11.2713ZM89.2123 10.1003C89.6904 10.1003 90.1393 9.98806 90.559 9.76361C90.9786 9.53916 91.3153 9.20249 91.569 8.75358C91.8325 8.30468 91.9642 7.75819 91.9642 7.11412C91.9642 6.47004 91.8374 5.92355 91.5836 5.47465C91.3299 5.02575 90.9981 4.69395 90.5882 4.47926C90.1784 4.25481 89.7344 4.14258 89.2562 4.14258C88.7682 4.14258 88.3193 4.25481 87.9095 4.47926C87.5094 4.69395 87.1873 5.02575 86.9434 5.47465C86.6994 5.92355 86.5774 6.47004 86.5774 7.11412C86.5774 7.76795 86.6945 8.31932 86.9287 8.76822C87.1727 9.21712 87.4947 9.5538 87.8948 9.77825C88.2949 9.99294 88.7341 10.1003 89.2123 10.1003ZM96.4091 4.4207C96.6433 3.96204 96.9751 3.60585 97.4045 3.35212C97.8436 3.0984 98.3755 2.97153 99 2.97153V4.34751H98.6487C97.1556 4.34751 96.4091 5.15749 96.4091 6.77744V11.1396H95.077V3.11791H96.4091V4.4207Z" fill="#1F76F8"/>
</svg>
