<svg width="55" height="18" viewBox="0 0 55 18" fill="none" xmlns="http://www.w3.org/2000/svg">
<g clip-path="url(#clip0_476_11898)">
<path d="M39.6683 5.35889V12.0983C39.6683 12.8511 39.4294 13.4322 38.9522 13.8422C38.4744 14.2522 37.7617 14.4572 36.8122 14.4572C35.8628 14.4572 35.1472 14.2522 34.6644 13.8422C34.1811 13.4322 33.94 12.8511 33.94 12.0983V5.35889C33.94 4.60667 34.1789 4.025 34.6561 3.615C35.1333 3.205 35.8467 3 36.7956 3C37.7444 3 38.4606 3.205 38.9439 3.615C39.4267 4.025 39.6683 4.60611 39.6683 5.35889ZM38.4889 12.0983V5.35889C38.4889 4.46056 37.9272 4.01111 36.8039 4.01111C35.6806 4.01111 35.1189 4.46056 35.1189 5.35889V12.0983C35.1189 12.9972 35.6806 13.4461 36.8039 13.4461C37.9272 13.4461 38.4889 12.9972 38.4889 12.0983ZM6.87222 3.25278V4.26389H4.02556V14.2044H2.84611V4.26389H0V3.25278H6.87222ZM16.6872 12.0983C16.6872 13.6711 15.7378 14.4572 13.8394 14.4572C11.9411 14.4572 10.9922 13.6711 10.9922 12.0983V10.6661H12.1717V12.1656C12.1717 12.57 12.3122 12.8844 12.5928 13.1089C12.8733 13.3339 13.2894 13.4456 13.8394 13.4456C14.3894 13.4456 14.8056 13.3333 15.0867 13.1089C15.3672 12.8844 15.5078 12.5783 15.5078 12.1906C15.5078 11.8028 15.4656 11.4944 15.3817 11.2639C15.2972 11.0339 15.1261 10.7894 14.8678 10.5311L11.9028 7.63333C11.5544 7.28556 11.3156 6.94556 11.1867 6.61389C11.0572 6.28278 10.9928 5.86389 10.9928 5.35889C10.9928 4.60667 11.2261 4.025 11.6922 3.615C12.1583 3.205 12.8633 3 13.8067 3C15.615 3 16.5194 3.78667 16.5194 5.35889V6.79111H15.34V5.29167C15.34 4.88722 15.2078 4.57278 14.9444 4.34833C14.68 4.12389 14.2844 4.01167 13.7567 4.01167C13.2289 4.01167 12.8328 4.12389 12.5689 4.34833C12.305 4.57333 12.1733 4.88222 12.1733 5.275C12.1733 5.66778 12.2128 5.97722 12.2911 6.20167C12.3694 6.42667 12.5439 6.66222 12.8133 6.90944L15.8294 9.80722C16.155 10.1667 16.38 10.5122 16.5033 10.8433C16.6267 11.175 16.6889 11.5933 16.6889 12.0983H16.6872ZM23.1011 12.0983V11.1717H24.2806V12.0983C24.2806 12.8511 24.0506 13.4322 23.59 13.8422C23.1294 14.2522 22.4383 14.4572 21.5178 14.4572C20.5972 14.4572 19.9006 14.2522 19.4283 13.8422C18.9567 13.4322 18.7206 12.8511 18.7206 12.0983V5.35889C18.7206 4.60667 18.9506 4.025 19.4117 3.615C19.8722 3.205 20.5628 3 21.4839 3C22.405 3 23.1011 3.205 23.5733 3.615C24.045 4.025 24.2806 4.60611 24.2806 5.35889V9.06556H19.9V12.0983C19.9 12.9972 20.4333 13.4461 21.5006 13.4461C22.5678 13.4461 23.1011 12.9972 23.1011 12.0983ZM19.9 5.35889V8.05444H23.1011V5.35889C23.1011 4.46056 22.5672 4.01111 21.5006 4.01111C20.4339 4.01111 19.9 4.46056 19.9 5.35889ZM30.6672 12.0983V11.1717H31.8467V12.0983C31.8467 12.8511 31.6167 13.4322 31.1561 13.8422C30.6956 14.2522 30.0044 14.4572 29.0839 14.4572C28.1633 14.4572 27.4667 14.2522 26.9944 13.8422C26.5228 13.4322 26.2867 12.8511 26.2867 12.0983V5.35889C26.2867 4.60667 26.5167 4.025 26.9778 3.615C27.4383 3.205 28.1289 3 29.05 3C29.9711 3 30.6672 3.205 31.1394 3.615C31.6111 4.025 31.8467 4.60611 31.8467 5.35889V6.95944H30.6672V5.35889C30.6672 4.46056 30.1333 4.01111 29.0667 4.01111C28 4.01111 27.4661 4.46056 27.4661 5.35889V12.0983C27.4661 12.9972 27.9994 13.4461 29.0667 13.4461C30.1339 13.4461 30.6672 12.9972 30.6672 12.0983ZM52.3206 14.2044H49.6078V3.25278H52.3206C53.1967 3.25278 53.8622 3.46056 54.3172 3.87611C54.7722 4.29167 54.9994 4.87 54.9994 5.61167V11.8456C54.9994 12.5983 54.7744 13.1794 54.3256 13.5894C53.8761 13.9994 53.2078 14.2044 52.3206 14.2044ZM53.82 11.8456V5.61167C53.82 5.185 53.6906 4.85333 53.4322 4.61778C53.1739 4.38167 52.8033 4.26389 52.32 4.26389H50.7867V13.1933H52.32C53.3194 13.1933 53.8194 12.7439 53.8194 11.8456H53.82ZM42.94 14.2044V5.35889C42.94 4.46056 43.5017 4.01111 44.625 4.01111C45.7483 4.01111 46.31 4.46056 46.31 5.35889V14.2044H47.4894V5.35889C47.4894 4.60667 47.2478 4.025 46.765 3.615C46.2817 3.205 45.5656 3 44.6167 3C43.6678 3 42.9544 3.205 42.4772 3.615C41.9994 4.025 41.7611 4.60611 41.7611 5.35889V14.2044H42.9406H42.94ZM8.87945 0H8.66833L8.50833 17.4578H9.03889L8.87945 0Z" fill="url(#paint0_linear_476_11898)"/>
</g>
<defs>
<linearGradient id="paint0_linear_476_11898" x1="0" y1="8.72889" x2="55" y2="8.72889" gradientUnits="userSpaceOnUse">
<stop stop-color="#B800D0"/>
<stop offset="0.14" stop-color="#B403D1"/>
<stop offset="1" stop-color="#008DFF"/>
</linearGradient>
<clipPath id="clip0_476_11898">
<rect width="55" height="17.4578" fill="white"/>
</clipPath>
</defs>
</svg>
