<svg width="36" height="34" viewBox="0 0 36 34" fill="none" xmlns="http://www.w3.org/2000/svg">
<rect width="36" height="34" fill="white"/>
<path d="M18 20.125C16.275 20.125 14.875 18.725 14.875 17C14.875 15.275 16.275 13.875 18 13.875C19.725 13.875 21.125 15.275 21.125 17C21.125 18.725 19.725 20.125 18 20.125ZM18 15.125C16.9667 15.125 16.125 15.9667 16.125 17C16.125 18.0333 16.9667 18.875 18 18.875C19.0333 18.875 19.875 18.0333 19.875 17C19.875 15.9667 19.0333 15.125 18 15.125Z" fill="#4E5A6A"/>
<path d="M20.675 25.4919C20.5 25.4919 20.325 25.4669 20.15 25.4252C19.6333 25.2836 19.2 24.9586 18.925 24.5002L18.825 24.3336C18.3333 23.4836 17.6583 23.4836 17.1667 24.3336L17.075 24.4919C16.8 24.9586 16.3667 25.2919 15.85 25.4252C15.325 25.5669 14.7833 25.4919 14.325 25.2169L12.8917 24.3919C12.3833 24.1002 12.0167 23.6252 11.8583 23.0502C11.7083 22.4752 11.7833 21.8836 12.075 21.3752C12.3167 20.9502 12.3833 20.5669 12.2417 20.3252C12.1 20.0836 11.7417 19.9419 11.25 19.9419C10.0333 19.9419 9.04166 18.9502 9.04166 17.7336V16.2669C9.04166 15.0502 10.0333 14.0586 11.25 14.0586C11.7417 14.0586 12.1 13.9169 12.2417 13.6752C12.3833 13.4336 12.325 13.0502 12.075 12.6252C11.7833 12.1169 11.7083 11.5169 11.8583 10.9502C12.0083 10.3752 12.375 9.90024 12.8917 9.60857L14.3333 8.78357C15.275 8.22524 16.5167 8.55024 17.0833 9.50857L17.1833 9.67524C17.675 10.5252 18.35 10.5252 18.8417 9.67524L18.9333 9.5169C19.5 8.55024 20.7417 8.22524 21.6917 8.7919L23.125 9.6169C23.6333 9.90857 24 10.3836 24.1583 10.9586C24.3083 11.5336 24.2333 12.1252 23.9417 12.6336C23.7 13.0586 23.6333 13.4419 23.775 13.6836C23.9167 13.9252 24.275 14.0669 24.7667 14.0669C25.9833 14.0669 26.975 15.0586 26.975 16.2752V17.7419C26.975 18.9586 25.9833 19.9502 24.7667 19.9502C24.275 19.9502 23.9167 20.0919 23.775 20.3336C23.6333 20.5752 23.6917 20.9586 23.9417 21.3836C24.2333 21.8919 24.3167 22.4919 24.1583 23.0586C24.0083 23.6336 23.6417 24.1086 23.125 24.4002L21.6833 25.2252C21.3667 25.4002 21.025 25.4919 20.675 25.4919ZM18 22.4086C18.7417 22.4086 19.4333 22.8752 19.9083 23.7002L20 23.8586C20.1 24.0336 20.2667 24.1586 20.4667 24.2086C20.6667 24.2586 20.8667 24.2336 21.0333 24.1336L22.475 23.3002C22.6917 23.1752 22.8583 22.9669 22.925 22.7169C22.9917 22.4669 22.9583 22.2086 22.8333 21.9919C22.3583 21.1752 22.3 20.3336 22.6667 19.6919C23.0333 19.0502 23.7917 18.6836 24.7417 18.6836C25.275 18.6836 25.7 18.2586 25.7 17.7252V16.2586C25.7 15.7336 25.275 15.3002 24.7417 15.3002C23.7917 15.3002 23.0333 14.9336 22.6667 14.2919C22.3 13.6502 22.3583 12.8086 22.8333 11.9919C22.9583 11.7752 22.9917 11.5169 22.925 11.2669C22.8583 11.0169 22.7 10.8169 22.4833 10.6836L21.0417 9.85857C20.6833 9.6419 20.2083 9.7669 19.9917 10.1336L19.9 10.2919C19.425 11.1169 18.7333 11.5836 17.9917 11.5836C17.25 11.5836 16.5583 11.1169 16.0833 10.2919L15.9917 10.1252C15.7833 9.77524 15.3167 9.65024 14.9583 9.85857L13.5167 10.6919C13.3 10.8169 13.1333 11.0252 13.0667 11.2752C13 11.5252 13.0333 11.7836 13.1583 12.0002C13.6333 12.8169 13.6917 13.6586 13.325 14.3002C12.9583 14.9419 12.2 15.3086 11.25 15.3086C10.7167 15.3086 10.2917 15.7336 10.2917 16.2669V17.7336C10.2917 18.2586 10.7167 18.6919 11.25 18.6919C12.2 18.6919 12.9583 19.0586 13.325 19.7002C13.6917 20.3419 13.6333 21.1836 13.1583 22.0002C13.0333 22.2169 13 22.4752 13.0667 22.7252C13.1333 22.9752 13.2917 23.1752 13.5083 23.3086L14.95 24.1336C15.125 24.2419 15.3333 24.2669 15.525 24.2169C15.725 24.1669 15.8917 24.0336 16 23.8586L16.0917 23.7002C16.5667 22.8836 17.2583 22.4086 18 22.4086Z" fill="#4E5A6A"/>
</svg>
