<svg width="33" height="33" viewBox="0 0 33 33" fill="none" xmlns="http://www.w3.org/2000/svg">
<rect width="32.0867" height="32.0504" transform="scale(1.02846)" fill="white"/>
<path d="M16.4976 15.1534C16.1462 15.1534 15.8548 14.862 15.8548 14.5106V11.6566C15.8548 11.3052 16.1462 11.0138 16.4976 11.0138C16.849 11.0138 17.1404 11.3052 17.1404 11.6566V14.5106C17.1404 14.8705 16.849 15.1534 16.4976 15.1534Z" fill="#4E5A6A"/>
<path d="M16.5148 23.5775C14.3036 23.5775 12.101 23.2261 10.0012 22.5233C9.22126 22.2662 8.6299 21.7091 8.37278 21.0063C8.11567 20.3036 8.20137 19.4979 8.62133 18.7952L9.70978 16.9782C9.94976 16.5754 10.164 15.8212 10.164 15.3498V13.55C10.164 10.0447 13.0094 7.19924 16.5148 7.19924C20.0201 7.19924 22.8655 10.0447 22.8655 13.55V15.3498C22.8655 15.8126 23.0798 16.5754 23.3198 16.9782L24.4082 18.7952C24.811 19.4637 24.8796 20.2607 24.6139 20.9892C24.3482 21.7177 23.7654 22.2748 23.0284 22.5233C20.9286 23.2347 18.726 23.5775 16.5148 23.5775ZM16.5148 8.49339C13.7208 8.49339 11.4496 10.7646 11.4496 13.5586V15.3584C11.4496 16.0526 11.1753 17.0553 10.8154 17.6467L9.72693 19.4722C9.50409 19.8408 9.45267 20.235 9.58123 20.5778C9.70978 20.9206 10.0012 21.1778 10.4126 21.3149C14.355 22.6262 18.6917 22.6262 22.6341 21.3149C23.0027 21.1949 23.2855 20.9206 23.414 20.5607C23.5512 20.2007 23.5083 19.8065 23.3112 19.4722L22.2227 17.6553C21.8628 17.0639 21.5885 16.0612 21.5885 15.3669V13.5671C21.58 10.7646 19.3088 8.49339 16.5148 8.49339Z" fill="#4E5A6A"/>
<path d="M16.4972 25.7634C15.5801 25.7634 14.6802 25.3863 14.0289 24.7349C13.3775 24.0836 13.0004 23.1837 13.0004 22.2666H14.286C14.286 22.8494 14.526 23.4151 14.9373 23.8264C15.3487 24.2378 15.9144 24.4778 16.4972 24.4778C17.7142 24.4778 18.7084 23.4836 18.7084 22.2666H19.994C19.994 24.195 18.4255 25.7634 16.4972 25.7634Z" fill="#4E5A6A"/>
</svg>
