<svg width="28" height="44" viewBox="0 0 28 44" fill="none" xmlns="http://www.w3.org/2000/svg">
<mask id="path-1-inside-1_317_28716" fill="white">
<path d="M0 0H28V44H0V0Z"/>
</mask>
<path d="M28 43H0V45H28V43Z" fill="#EAECF0" mask="url(#path-1-inside-1_317_28716)"/>
<path d="M16.3333 25.3333C16.5985 25.3333 16.8528 25.4387 17.0404 25.6262C17.2279 25.8138 17.3333 26.0681 17.3333 26.3333C17.3333 26.5985 17.2279 26.8529 17.0404 27.0404C16.8528 27.228 16.5985 27.3333 16.3333 27.3333C16.068 27.3333 15.8137 27.228 15.6261 27.0404C15.4386 26.8529 15.3333 26.5985 15.3333 26.3333C15.3333 26.0681 15.4386 25.8138 15.6261 25.6262C15.8137 25.4387 16.068 25.3333 16.3333 25.3333ZM16.3333 20.6667C16.5985 20.6667 16.8528 20.772 17.0404 20.9596C17.2279 21.1471 17.3333 21.4015 17.3333 21.6667C17.3333 21.9319 17.2279 22.1862 17.0404 22.3738C16.8528 22.5613 16.5985 22.6667 16.3333 22.6667C16.068 22.6667 15.8137 22.5613 15.6261 22.3738C15.4386 22.1862 15.3333 21.9319 15.3333 21.6667C15.3333 21.4015 15.4386 21.1471 15.6261 20.9596C15.8137 20.772 16.068 20.6667 16.3333 20.6667ZM16.3333 16C16.5985 16 16.8528 16.1054 17.0404 16.2929C17.2279 16.4804 17.3333 16.7348 17.3333 17C17.3333 17.2652 17.2279 17.5196 17.0404 17.7071C16.8528 17.8946 16.5985 18 16.3333 18C16.068 18 15.8137 17.8946 15.6261 17.7071C15.4386 17.5196 15.3333 17.2652 15.3333 17C15.3333 16.7348 15.4386 16.4804 15.6261 16.2929C15.8137 16.1054 16.068 16 16.3333 16Z" fill="#667085"/>
</svg>
