<svg width="461" height="111" viewBox="0 0 461 111" fill="none" xmlns="http://www.w3.org/2000/svg">
<path d="M7.15298 3.3513V25.4102C7.15298 28.5114 7.90328 30.8124 9.40389 32.313C10.9378 33.8136 13.0554 34.5639 15.7564 34.5639C18.4242 34.5639 20.5084 33.8136 22.009 32.313C23.5429 30.8124 24.3099 28.5114 24.3099 25.4102V3.3513H28.8617V25.3602C28.8617 28.2613 28.2782 30.7123 27.111 32.7131C25.9439 34.6806 24.3599 36.1479 22.3591 37.1149C20.3917 38.082 18.1741 38.5655 15.7064 38.5655C13.2388 38.5655 11.0045 38.082 9.00373 37.1149C7.03627 36.1479 5.46897 34.6806 4.30183 32.7131C3.16804 30.7123 2.60115 28.2613 2.60115 25.3602V3.3513H7.15298ZM50.3106 10.3041C53.6453 10.3041 56.3464 11.3212 58.4139 13.3553C60.4814 15.3561 61.5151 18.2573 61.5151 22.0588V38.2154H57.0133V22.7091C57.0133 19.9747 56.3297 17.8905 54.9625 16.4566C53.5953 14.9893 51.7278 14.2557 49.3602 14.2557C46.9593 14.2557 45.0418 15.006 43.6079 16.5066C42.2073 18.0072 41.5071 20.1914 41.5071 23.0592V38.2154H36.9552V10.8043H41.5071V14.7059C42.4074 13.3053 43.6246 12.2215 45.1585 11.4546C46.7258 10.6876 48.4432 10.3041 50.3106 10.3041ZM71.8017 6.35251C70.9347 6.35251 70.201 6.05239 69.6008 5.45215C69.0006 4.8519 68.7004 4.11828 68.7004 3.25126C68.7004 2.38424 69.0006 1.65062 69.6008 1.05037C70.201 0.450131 70.9347 0.15001 71.8017 0.15001C72.6354 0.15001 73.3356 0.450131 73.9025 1.05037C74.5028 1.65062 74.8029 2.38424 74.8029 3.25126C74.8029 4.11828 74.5028 4.8519 73.9025 5.45215C73.3356 6.05239 72.6354 6.35251 71.8017 6.35251ZM74.0026 10.8043V38.2154H69.4507V10.8043H74.0026ZM93.4151 14.5558H87.6628V38.2154H83.1109V14.5558H79.5595V10.8043H83.1109V8.85352C83.1109 5.78562 83.8946 3.55138 85.4619 2.15082C87.0625 0.716905 89.6136 -5.17577e-05 93.115 -5.17577e-05V3.80148C91.1142 3.80148 89.6969 4.20164 88.8633 5.00197C88.0629 5.76894 87.6628 7.05279 87.6628 8.85352V10.8043H93.4151V14.5558ZM101.573 6.35251C100.706 6.35251 99.9728 6.05239 99.3726 5.45215C98.7723 4.8519 98.4722 4.11828 98.4722 3.25126C98.4722 2.38424 98.7723 1.65062 99.3726 1.05037C99.9728 0.450131 100.706 0.15001 101.573 0.15001C102.407 0.15001 103.107 0.450131 103.674 1.05037C104.275 1.65062 104.575 2.38424 104.575 3.25126C104.575 4.11828 104.275 4.8519 103.674 5.45215C103.107 6.05239 102.407 6.35251 101.573 6.35251ZM103.774 10.8043V38.2154H99.2225V10.8043H103.774ZM137.042 23.4594C137.042 24.3264 136.992 25.2435 136.892 26.2105H114.984C115.15 28.9116 116.067 31.0291 117.735 32.5631C119.435 34.0637 121.486 34.814 123.887 34.814C125.855 34.814 127.489 34.3638 128.789 33.4634C130.123 32.5297 131.057 31.2959 131.59 29.7619H136.492C135.759 32.3963 134.291 34.5472 132.09 36.2145C129.89 37.8485 127.155 38.6655 123.887 38.6655C121.286 38.6655 118.952 38.082 116.884 36.9148C114.85 35.7477 113.25 34.097 112.082 31.9628C110.915 29.7953 110.332 27.2943 110.332 24.4598C110.332 21.6253 110.899 19.141 112.032 17.0068C113.166 14.8726 114.75 13.2386 116.784 12.1048C118.852 10.9377 121.219 10.3541 123.887 10.3541C126.488 10.3541 128.789 10.921 130.79 12.0548C132.791 13.1886 134.325 14.7559 135.392 16.7567C136.492 18.7242 137.042 20.9584 137.042 23.4594ZM132.341 22.509C132.341 20.775 131.957 19.2911 131.19 18.0572C130.423 16.7901 129.373 15.8397 128.039 15.2061C126.738 14.5391 125.288 14.2057 123.687 14.2057C121.386 14.2057 119.419 14.9393 117.785 16.4066C116.184 17.8738 115.267 19.908 115.034 22.509H132.341ZM141.85 24.4098C141.85 21.6087 142.417 19.1577 143.551 17.0568C144.685 14.9226 146.235 13.272 148.203 12.1048C150.204 10.9377 152.438 10.3541 154.905 10.3541C157.04 10.3541 159.024 10.8543 160.858 11.8547C162.692 12.8218 164.093 14.1056 165.06 15.7063V1.20043H169.661V38.2154H165.06V33.0633C164.159 34.6973 162.825 36.0478 161.058 37.1149C159.291 38.1487 157.223 38.6655 154.855 38.6655C152.421 38.6655 150.204 38.0653 148.203 36.8648C146.235 35.6643 144.685 33.9803 143.551 31.8128C142.417 29.6452 141.85 27.1776 141.85 24.4098ZM165.06 24.4598C165.06 22.3923 164.643 20.5916 163.809 19.0576C162.975 17.5237 161.842 16.3565 160.408 15.5562C159.007 14.7226 157.457 14.3057 155.756 14.3057C154.055 14.3057 152.505 14.7059 151.104 15.5062C149.703 16.3065 148.586 17.4737 147.753 19.0076C146.919 20.5416 146.502 22.3423 146.502 24.4098C146.502 26.5106 146.919 28.3447 147.753 29.912C148.586 31.446 149.703 32.6298 151.104 33.4634C152.505 34.2638 154.055 34.6639 155.756 34.6639C157.457 34.6639 159.007 34.2638 160.408 33.4634C161.842 32.6298 162.975 31.446 163.809 29.912C164.643 28.3447 165.06 26.5273 165.06 24.4598ZM202.744 38.5655C200.443 38.5655 198.375 38.1653 196.541 37.365C194.741 36.5313 193.323 35.3976 192.29 33.9636C191.256 32.4964 190.722 30.8124 190.689 28.9116H195.541C195.708 30.5456 196.375 31.9295 197.542 33.0633C198.742 34.1637 200.476 34.7139 202.744 34.7139C204.911 34.7139 206.612 34.1804 207.846 33.1133C209.113 32.0129 209.747 30.6123 209.747 28.9116C209.747 27.5777 209.38 26.494 208.646 25.6603C207.913 24.8266 206.996 24.193 205.895 23.7595C204.795 23.326 203.311 22.8592 201.443 22.359C199.142 21.7587 197.292 21.1585 195.891 20.5582C194.524 19.958 193.34 19.0243 192.34 17.7571C191.373 16.4566 190.889 14.7226 190.889 12.555C190.889 10.6542 191.373 8.97023 192.34 7.50297C193.307 6.03571 194.657 4.90192 196.391 4.1016C198.159 3.30128 200.176 2.90112 202.444 2.90112C205.712 2.90112 208.38 3.71812 210.447 5.35211C212.548 6.9861 213.732 9.15364 213.998 11.8547H208.996C208.83 10.5209 208.129 9.35372 206.896 8.35332C205.662 7.31957 204.028 6.80269 201.994 6.80269C200.093 6.80269 198.542 7.30289 197.342 8.3033C196.141 9.27035 195.541 10.6376 195.541 12.4049C195.541 13.6721 195.891 14.7059 196.591 15.5062C197.325 16.3065 198.209 16.9234 199.243 17.3569C200.31 17.7571 201.794 18.224 203.694 18.7575C205.995 19.3911 207.846 20.0247 209.247 20.6583C210.647 21.2585 211.848 22.2089 212.848 23.5094C213.848 24.7766 214.349 26.5106 214.349 28.7115C214.349 30.4122 213.898 32.0129 212.998 33.5135C212.098 35.0141 210.764 36.2312 208.996 37.1649C207.229 38.0986 205.145 38.5655 202.744 38.5655ZM233.502 38.6655C230.934 38.6655 228.6 38.082 226.499 36.9148C224.432 35.7477 222.798 34.097 221.597 31.9628C220.43 29.7953 219.847 27.2943 219.847 24.4598C219.847 21.6587 220.447 19.191 221.647 17.0568C222.881 14.8893 224.548 13.2386 226.649 12.1048C228.75 10.9377 231.101 10.3541 233.702 10.3541C236.303 10.3541 238.654 10.9377 240.755 12.1048C242.856 13.2386 244.506 14.8726 245.707 17.0068C246.941 19.141 247.558 21.6253 247.558 24.4598C247.558 27.2943 246.924 29.7953 245.657 31.9628C244.423 34.097 242.739 35.7477 240.605 36.9148C238.471 38.082 236.103 38.6655 233.502 38.6655ZM233.502 34.6639C235.136 34.6639 236.67 34.2804 238.104 33.5135C239.538 32.7465 240.688 31.596 241.555 30.0621C242.456 28.5281 242.906 26.6607 242.906 24.4598C242.906 22.2589 242.472 20.3915 241.605 18.8575C240.738 17.3236 239.604 16.1898 238.204 15.4562C236.803 14.6892 235.286 14.3057 233.652 14.3057C231.985 14.3057 230.451 14.6892 229.05 15.4562C227.683 16.1898 226.583 17.3236 225.749 18.8575C224.915 20.3915 224.498 22.2589 224.498 24.4598C224.498 26.694 224.899 28.5781 225.699 30.1121C226.533 31.646 227.633 32.7965 229 33.5635C230.367 34.2971 231.868 34.6639 233.502 34.6639ZM258.595 1.20043V38.2154H254.043V1.20043H258.595ZM291.162 10.8043V38.2154H286.611V34.1637C285.744 35.5643 284.526 36.6647 282.959 37.4651C281.425 38.232 279.724 38.6155 277.857 38.6155C275.723 38.6155 273.805 38.182 272.105 37.315C270.404 36.4146 269.053 35.0808 268.053 33.3134C267.086 31.546 266.602 29.3951 266.602 26.8608V10.8043H271.104V26.2605C271.104 28.9616 271.788 31.0458 273.155 32.5131C274.522 33.947 276.39 34.6639 278.757 34.6639C281.192 34.6639 283.109 33.9136 284.51 32.413C285.91 30.9124 286.611 28.7282 286.611 25.8604V10.8043H291.162ZM304.9 14.5558V30.7123C304.9 32.0462 305.184 32.9966 305.751 33.5635C306.318 34.097 307.301 34.3638 308.702 34.3638H312.053V38.2154H307.952C305.417 38.2154 303.516 37.6318 302.249 36.4646C300.982 35.2975 300.348 33.3801 300.348 30.7123V14.5558H296.797V10.8043H300.348V3.90152H304.9V10.8043H312.053V14.5558H304.9ZM320.419 6.35251C319.552 6.35251 318.819 6.05239 318.219 5.45215C317.618 4.8519 317.318 4.11828 317.318 3.25126C317.318 2.38424 317.618 1.65062 318.219 1.05037C318.819 0.450131 319.552 0.15001 320.419 0.15001C321.253 0.15001 321.953 0.450131 322.52 1.05037C323.121 1.65062 323.421 2.38424 323.421 3.25126C323.421 4.11828 323.121 4.8519 322.52 5.45215C321.953 6.05239 321.253 6.35251 320.419 6.35251ZM322.62 10.8043V38.2154H318.069V10.8043H322.62ZM342.833 38.6655C340.265 38.6655 337.931 38.082 335.83 36.9148C333.763 35.7477 332.129 34.097 330.928 31.9628C329.761 29.7953 329.178 27.2943 329.178 24.4598C329.178 21.6587 329.778 19.191 330.978 17.0568C332.212 14.8893 333.88 13.2386 335.98 12.1048C338.081 10.9377 340.432 10.3541 343.033 10.3541C345.634 10.3541 347.985 10.9377 350.086 12.1048C352.187 13.2386 353.838 14.8726 355.038 17.0068C356.272 19.141 356.889 21.6253 356.889 24.4598C356.889 27.2943 356.255 29.7953 354.988 31.9628C353.754 34.097 352.07 35.7477 349.936 36.9148C347.802 38.082 345.434 38.6655 342.833 38.6655ZM342.833 34.6639C344.467 34.6639 346.001 34.2804 347.435 33.5135C348.869 32.7465 350.019 31.596 350.886 30.0621C351.787 28.5281 352.237 26.6607 352.237 24.4598C352.237 22.2589 351.803 20.3915 350.936 18.8575C350.069 17.3236 348.936 16.1898 347.535 15.4562C346.135 14.6892 344.617 14.3057 342.983 14.3057C341.316 14.3057 339.782 14.6892 338.381 15.4562C337.014 16.1898 335.914 17.3236 335.08 18.8575C334.246 20.3915 333.83 22.2589 333.83 24.4598C333.83 26.694 334.23 28.5781 335.03 30.1121C335.864 31.646 336.964 32.7965 338.331 33.5635C339.699 34.2971 341.199 34.6639 342.833 34.6639ZM376.729 10.3041C380.064 10.3041 382.765 11.3212 384.833 13.3553C386.9 15.3561 387.934 18.2573 387.934 22.0588V38.2154H383.432V22.7091C383.432 19.9747 382.748 17.8905 381.381 16.4566C380.014 14.9893 378.147 14.2557 375.779 14.2557C373.378 14.2557 371.46 15.006 370.027 16.5066C368.626 18.0072 367.926 20.1914 367.926 23.0592V38.2154H363.374V10.8043H367.926V14.7059C368.826 13.3053 370.043 12.2215 371.577 11.4546C373.144 10.6876 374.862 10.3041 376.729 10.3041ZM13.8557 73.5796H8.10336V97.2391H3.55153V73.5796H9.7791e-05V69.8281H3.55153V67.8773C3.55153 64.8094 4.33518 62.5752 5.90248 61.1746C7.50312 59.7407 10.0541 59.0237 13.5556 59.0237V62.8253C11.5548 62.8253 10.1375 63.2254 9.30385 64.0258C8.50352 64.7927 8.10336 66.0766 8.10336 67.8773V69.8281H13.8557V73.5796ZM31.6179 97.6893C29.0502 97.6893 26.7159 97.1058 24.6151 95.9386C22.5476 94.7715 20.9136 93.1208 19.7131 90.9866C18.546 88.8191 17.9624 86.3181 17.9624 83.4836C17.9624 80.6825 18.5627 78.2148 19.7631 76.0806C20.997 73.9131 22.6643 72.2624 24.7652 71.1286C26.866 69.9615 29.217 69.3779 31.818 69.3779C34.419 69.3779 36.77 69.9615 38.8708 71.1286C40.9717 72.2624 42.6224 73.8964 43.8228 76.0306C45.0567 78.1648 45.6736 80.6491 45.6736 83.4836C45.6736 86.3181 45.04 88.8191 43.7728 90.9866C42.539 93.1208 40.855 94.7715 38.7208 95.9386C36.5866 97.1058 34.219 97.6893 31.6179 97.6893ZM31.6179 93.6877C33.2519 93.6877 34.7859 93.3042 36.2198 92.5372C37.6537 91.7703 38.8041 90.6198 39.6712 89.0859C40.5715 87.5519 41.0217 85.6845 41.0217 83.4836C41.0217 81.2827 40.5882 79.4153 39.7212 77.8813C38.8542 76.3474 37.7204 75.2136 36.3198 74.48C34.9193 73.713 33.402 73.3295 31.768 73.3295C30.1006 73.3295 28.5667 73.713 27.1661 74.48C25.7989 75.2136 24.6985 76.3474 23.8648 77.8813C23.0311 79.4153 22.6143 81.2827 22.6143 83.4836C22.6143 85.7178 23.0145 87.6019 23.8148 89.1359C24.6484 90.6698 25.7489 91.8203 27.1161 92.5873C28.4833 93.3209 29.9839 93.6877 31.6179 93.6877ZM56.7105 74.2799C57.5108 72.7126 58.6446 71.4954 60.1118 70.6284C61.6124 69.7614 63.4298 69.3279 65.564 69.3279V74.0298H64.3635C59.2615 74.0298 56.7105 76.7976 56.7105 82.3331V97.2391H52.1586V69.8281H56.7105V74.2799ZM96.0087 62.3751C99.8102 62.3751 103.095 63.092 105.863 64.526C108.664 65.9265 110.798 67.944 112.265 70.5784C113.766 73.2128 114.516 76.314 114.516 79.8821C114.516 83.4502 113.766 86.5515 112.265 89.1859C110.798 91.7869 108.664 93.7877 105.863 95.1883C103.095 96.5555 99.8102 97.2391 96.0087 97.2391H85.1543V62.3751H96.0087ZM96.0087 93.4876C100.511 93.4876 103.945 92.3038 106.313 89.9362C108.68 87.5352 109.864 84.1839 109.864 79.8821C109.864 75.5471 108.664 72.1624 106.263 69.7281C103.895 67.2937 100.477 66.0766 96.0087 66.0766H89.7062V93.4876H96.0087ZM119.32 83.4336C119.32 80.6324 119.887 78.1815 121.02 76.0806C122.154 73.9464 123.705 72.2958 125.672 71.1286C127.673 69.9615 129.891 69.3779 132.325 69.3779C134.726 69.3779 136.81 69.8948 138.577 70.9285C140.345 71.9623 141.662 73.2628 142.529 74.8301V69.8281H147.131V97.2391H142.529V92.1371C141.629 93.7377 140.278 95.0716 138.477 96.1387C136.71 97.1724 134.643 97.6893 132.275 97.6893C129.841 97.6893 127.64 97.0891 125.672 95.8886C123.705 94.6881 122.154 93.0041 121.02 90.8366C119.887 88.669 119.32 86.2014 119.32 83.4336ZM142.529 83.4836C142.529 81.4161 142.112 79.6154 141.279 78.0814C140.445 76.5475 139.311 75.3803 137.877 74.58C136.477 73.7463 134.926 73.3295 133.225 73.3295C131.525 73.3295 129.974 73.7297 128.573 74.53C127.173 75.3303 126.056 76.4974 125.222 78.0314C124.388 79.5653 123.972 81.3661 123.972 83.4336C123.972 85.5344 124.388 87.3685 125.222 88.9358C126.056 90.4697 127.173 91.6536 128.573 92.4872C129.974 93.2875 131.525 93.6877 133.225 93.6877C134.926 93.6877 136.477 93.2875 137.877 92.4872C139.311 91.6536 140.445 90.4697 141.279 88.9358C142.112 87.3685 142.529 85.5511 142.529 83.4836ZM160.875 73.5796V89.7361C160.875 91.07 161.159 92.0204 161.726 92.5873C162.293 93.1208 163.276 93.3876 164.677 93.3876H168.028V97.2391H163.927C161.392 97.2391 159.492 96.6556 158.224 95.4884C156.957 94.3213 156.324 92.4039 156.324 89.7361V73.5796H152.772V69.8281H156.324V62.9253H160.875V69.8281H168.028V73.5796H160.875ZM172.343 83.4336C172.343 80.6324 172.91 78.1815 174.044 76.0806C175.177 73.9464 176.728 72.2958 178.696 71.1286C180.696 69.9615 182.914 69.3779 185.348 69.3779C187.749 69.3779 189.833 69.8948 191.601 70.9285C193.368 71.9623 194.685 73.2628 195.552 74.8301V69.8281H200.154V97.2391H195.552V92.1371C194.652 93.7377 193.301 95.0716 191.501 96.1387C189.733 97.1724 187.666 97.6893 185.298 97.6893C182.864 97.6893 180.663 97.0891 178.696 95.8886C176.728 94.6881 175.177 93.0041 174.044 90.8366C172.91 88.669 172.343 86.2014 172.343 83.4336ZM195.552 83.4836C195.552 81.4161 195.136 79.6154 194.302 78.0814C193.468 76.5475 192.334 75.3803 190.9 74.58C189.5 73.7463 187.949 73.3295 186.249 73.3295C184.548 73.3295 182.997 73.7297 181.597 74.53C180.196 75.3303 179.079 76.4974 178.245 78.0314C177.412 79.5653 176.995 81.3661 176.995 83.4336C176.995 85.5344 177.412 87.3685 178.245 88.9358C179.079 90.4697 180.196 91.6536 181.597 92.4872C182.997 93.2875 184.548 93.6877 186.249 93.6877C187.949 93.6877 189.5 93.2875 190.9 92.4872C192.334 91.6536 193.468 90.4697 194.302 88.9358C195.136 87.3685 195.552 85.5511 195.552 83.4836ZM243.641 62.3751V66.0766H234.137V97.2391H229.585V66.0766H220.031V62.3751H243.641ZM254.296 74.2799C255.096 72.7126 256.23 71.4954 257.697 70.6284C259.198 69.7614 261.015 69.3279 263.15 69.3279V74.0298H261.949C256.847 74.0298 254.296 76.7976 254.296 82.3331V97.2391H249.744V69.8281H254.296V74.2799ZM267.203 83.4336C267.203 80.6324 267.77 78.1815 268.904 76.0806C270.038 73.9464 271.589 72.2958 273.556 71.1286C275.557 69.9615 277.774 69.3779 280.209 69.3779C282.61 69.3779 284.694 69.8948 286.461 70.9285C288.229 71.9623 289.546 73.2628 290.413 74.8301V69.8281H295.015V97.2391H290.413V92.1371C289.512 93.7377 288.162 95.0716 286.361 96.1387C284.594 97.1724 282.526 97.6893 280.159 97.6893C277.724 97.6893 275.524 97.0891 273.556 95.8886C271.589 94.6881 270.038 93.0041 268.904 90.8366C267.77 88.669 267.203 86.2014 267.203 83.4336ZM290.413 83.4836C290.413 81.4161 289.996 79.6154 289.162 78.0814C288.329 76.5475 287.195 75.3803 285.761 74.58C284.36 73.7463 282.81 73.3295 281.109 73.3295C279.408 73.3295 277.858 73.7297 276.457 74.53C275.057 75.3303 273.94 76.4974 273.106 78.0314C272.272 79.5653 271.855 81.3661 271.855 83.4336C271.855 85.5344 272.272 87.3685 273.106 88.9358C273.94 90.4697 275.057 91.6536 276.457 92.4872C277.858 93.2875 279.408 93.6877 281.109 93.6877C282.81 93.6877 284.36 93.2875 285.761 92.4872C287.195 91.6536 288.329 90.4697 289.162 88.9358C289.996 87.3685 290.413 85.5511 290.413 83.4836ZM316.562 69.3279C319.897 69.3279 322.598 70.345 324.666 72.3791C326.733 74.3799 327.767 77.2811 327.767 81.0826V97.2391H323.265V81.7329C323.265 78.9985 322.582 76.9143 321.214 75.4804C319.847 74.0131 317.98 73.2795 315.612 73.2795C313.211 73.2795 311.294 74.0298 309.86 75.5304C308.459 77.031 307.759 79.2152 307.759 82.083V97.2391H303.207V69.8281H307.759V73.7297C308.659 72.3291 309.876 71.2453 311.41 70.4784C312.978 69.7114 314.695 69.3279 316.562 69.3279ZM345.406 97.6893C343.306 97.6893 341.422 97.3392 339.754 96.6389C338.087 95.9053 336.77 94.9049 335.803 93.6377C334.836 92.3372 334.302 90.8532 334.202 89.1859H338.904C339.037 90.5531 339.671 91.6702 340.805 92.5372C341.972 93.4043 343.489 93.8378 345.356 93.8378C347.091 93.8378 348.458 93.4543 349.458 92.6873C350.459 91.9203 350.959 90.9533 350.959 89.7861C350.959 88.5857 350.425 87.702 349.358 87.1351C348.291 86.5348 346.64 85.9513 344.406 85.3844C342.372 84.8508 340.705 84.3173 339.404 83.7837C338.137 83.2168 337.036 82.3998 336.103 81.3327C335.202 80.2323 334.752 78.7984 334.752 77.031C334.752 75.6304 335.169 74.3466 336.003 73.1794C336.836 72.0123 338.02 71.0953 339.554 70.4283C341.088 69.7281 342.839 69.3779 344.806 69.3779C347.841 69.3779 350.292 70.1449 352.159 71.6788C354.027 73.2128 355.027 75.3136 355.16 77.9814H350.609C350.509 76.5475 349.925 75.397 348.858 74.53C347.824 73.663 346.424 73.2295 344.656 73.2295C343.022 73.2295 341.722 73.5796 340.755 74.2799C339.788 74.9802 339.304 75.8972 339.304 77.031C339.304 77.9314 339.587 78.6817 340.154 79.2819C340.755 79.8488 341.488 80.3157 342.355 80.6825C343.256 81.0159 344.489 81.3994 346.057 81.8329C348.024 82.3665 349.625 82.9 350.859 83.4336C352.093 83.9338 353.143 84.7008 354.01 85.7345C354.91 86.7683 355.377 88.1188 355.411 89.7861C355.411 91.2867 354.994 92.6373 354.16 93.8378C353.326 95.0383 352.143 95.9886 350.609 96.6889C349.108 97.3559 347.374 97.6893 345.406 97.6893ZM366.888 74.8801C367.789 73.3128 369.122 72.0123 370.89 70.9786C372.691 69.9115 374.775 69.3779 377.142 69.3779C379.577 69.3779 381.778 69.9615 383.745 71.1286C385.746 72.2958 387.313 73.9464 388.447 76.0806C389.581 78.1815 390.148 80.6324 390.148 83.4336C390.148 86.2014 389.581 88.669 388.447 90.8366C387.313 93.0041 385.746 94.6881 383.745 95.8886C381.778 97.0891 379.577 97.6893 377.142 97.6893C374.808 97.6893 372.741 97.1724 370.94 96.1387C369.172 95.0716 367.822 93.7544 366.888 92.1871V110.244H362.336V69.8281H366.888V74.8801ZM385.496 83.4336C385.496 81.3661 385.079 79.5653 384.245 78.0314C383.412 76.4974 382.278 75.3303 380.844 74.53C379.443 73.7297 377.893 73.3295 376.192 73.3295C374.525 73.3295 372.974 73.7463 371.54 74.58C370.14 75.3803 369.006 76.5641 368.139 78.1314C367.305 79.6654 366.888 81.4494 366.888 83.4836C366.888 85.5511 367.305 87.3685 368.139 88.9358C369.006 90.4697 370.14 91.6536 371.54 92.4872C372.974 93.2875 374.525 93.6877 376.192 93.6877C377.893 93.6877 379.443 93.2875 380.844 92.4872C382.278 91.6536 383.412 90.4697 384.245 88.9358C385.079 87.3685 385.496 85.5344 385.496 83.4336ZM408.594 97.6893C406.026 97.6893 403.692 97.1058 401.591 95.9386C399.524 94.7715 397.89 93.1208 396.689 90.9866C395.522 88.8191 394.939 86.3181 394.939 83.4836C394.939 80.6825 395.539 78.2148 396.739 76.0806C397.973 73.9131 399.64 72.2624 401.741 71.1286C403.842 69.9615 406.193 69.3779 408.794 69.3779C411.395 69.3779 413.746 69.9615 415.847 71.1286C417.948 72.2624 419.599 73.8964 420.799 76.0306C422.033 78.1648 422.65 80.6491 422.65 83.4836C422.65 86.3181 422.016 88.8191 420.749 90.9866C419.515 93.1208 417.831 94.7715 415.697 95.9386C413.563 97.1058 411.195 97.6893 408.594 97.6893ZM408.594 93.6877C410.228 93.6877 411.762 93.3042 413.196 92.5372C414.63 91.7703 415.78 90.6198 416.647 89.0859C417.548 87.5519 417.998 85.6845 417.998 83.4836C417.998 81.2827 417.564 79.4153 416.697 77.8813C415.83 76.3474 414.697 75.2136 413.296 74.48C411.895 73.713 410.378 73.3295 408.744 73.3295C407.077 73.3295 405.543 73.713 404.142 74.48C402.775 75.2136 401.675 76.3474 400.841 77.8813C400.007 79.4153 399.59 81.2827 399.59 83.4836C399.59 85.7178 399.991 87.6019 400.791 89.1359C401.625 90.6698 402.725 91.8203 404.092 92.5873C405.459 93.3209 406.96 93.6877 408.594 93.6877ZM433.687 74.2799C434.487 72.7126 435.621 71.4954 437.088 70.6284C438.589 69.7614 440.406 69.3279 442.54 69.3279V74.0298H441.34C436.238 74.0298 433.687 76.7976 433.687 82.3331V97.2391H429.135V69.8281H433.687V74.2799ZM453.847 73.5796V89.7361C453.847 91.07 454.131 92.0204 454.697 92.5873C455.264 93.1208 456.248 93.3876 457.649 93.3876H461V97.2391H456.898C454.364 97.2391 452.463 96.6556 451.196 95.4884C449.929 94.3213 449.295 92.4039 449.295 89.7361V73.5796H445.744V69.8281H449.295V62.9253H453.847V69.8281H461V73.5796H453.847Z" fill="white"/>
</svg>
